<?xml version="1.0" encoding="UTF-8" standalone="no" ?>
<!DOCTYPE svg PUBLIC "-//W3C//DTD SVG 1.1//EN" "http://www.w3.org/Graphics/SVG/1.1/DTD/svg11.dtd">
<svg xmlns="http://www.w3.org/2000/svg" xmlns:xlink="http://www.w3.org/1999/xlink" version="1.1" width="62.22270440521169" height="58.07459981996661" viewBox="218.887 220.9649001800334 62.22270440521169 58.07459981996661" xml:space="preserve">
<desc>Created with Fabric.js 4.6.0</desc>
<defs>
</defs>
<g transform="matrix(1 0 0 1 253.19 249.67)" id="yX9I3Mnzdx-iNpoUSgczc"  >
<path style="stroke: none; stroke-width: 34; stroke-dasharray: none; stroke-linecap: butt; stroke-dashoffset: 0; stroke-linejoin: miter; stroke-miterlimit: 4; fill: rgb(61,8,123); fill-rule: nonzero; opacity: 1;" vector-effect="non-scaling-stroke"  transform=" translate(-17.3, -13.78)" d="M 18.08 13.773 C 15.912999999999998 10.02 16.067999999999998 5.573 18.084999999999997 2.0700000000000003 C 16.092999999999996 2.067 14.073999999999998 2.5610000000000004 12.223999999999997 3.6300000000000003 C 8.238 5.933 6.13 10.221 6.402 14.523 C 7.347 14.554 8.241 14.89 8.961 15.491999999999999 C 9.642 15.113 10.396 14.918 11.182 14.918 C 13.275 14.918 15.085 16.326999999999998 15.65 18.297 C 17.126 18.752 18.167 20.11 18.167 21.711000000000002 C 18.167 23.383000000000003 17.01 24.781000000000002 15.457 25.178 C 18.242 25.819000000000003 21.266000000000002 25.459 23.937 23.918 C 25.787000000000003 22.849999999999998 27.224 21.349 28.218 19.621 C 24.176 19.614 20.247 17.525 18.08 13.773 z" stroke-linecap="round" />
</g>
<g transform="matrix(1 0 0 1 244.48 256.71)" id="FEB6Ll1THrOFiW-0tPuVW"  >
<path style="stroke: none; stroke-width: 34; stroke-dasharray: none; stroke-linecap: butt; stroke-dashoffset: 0; stroke-linejoin: miter; stroke-miterlimit: 4; fill: rgb(61,8,123); fill-rule: nonzero; opacity: 1;" vector-effect="non-scaling-stroke"  transform=" translate(-8.59, -20.82)" d="M 17.186 21.709 C 17.186 20.352 16.145 19.25 14.822 19.127 C 14.593 17.308999999999997 13.059999999999999 15.898 11.181999999999999 15.898 C 10.283999999999999 15.898 9.473999999999998 16.229 8.834 16.759999999999998 C 8.233 15.991999999999997 7.308 15.488999999999997 6.257999999999999 15.488999999999997 C 4.688999999999999 15.488999999999997 3.382999999999999 16.589999999999996 3.055999999999999 18.058999999999997 C 1.35 18.178 0 19.584 0 21.321 C 0 23.133000000000003 1.47 24.602 3.283 24.602 C 3.668 24.602 4.034 24.524 4.377 24.402 C 4.975 25.222 5.936 25.761000000000003 7.028 25.761000000000003 C 7.696 25.761000000000003 8.315999999999999 25.559 8.834999999999999 25.216 C 9.427 25.790000000000003 10.230999999999998 26.148 11.122 26.148 C 12.433 26.148 13.555 25.373 14.081 24.261 C 14.241999999999999 24.291999999999998 14.407 24.313 14.578 24.313 C 16.018 24.314 17.186 23.147 17.186 21.709 z" stroke-linecap="round" />
</g>
<g transform="matrix(1 0 0 1 260.2 249.56)" id="UNeMFtF_xOd9_0M9f4bYR"  >
<path style="stroke: none; stroke-width: 34; stroke-dasharray: none; stroke-linecap: butt; stroke-dashoffset: 0; stroke-linejoin: miter; stroke-miterlimit: 4; fill: rgb(61,8,123); fill-rule: nonzero; opacity: 1;" vector-effect="non-scaling-stroke"  transform=" translate(-24.31, -13.67)" d="M 24.343 15.226 L 24.811 14.196000000000002 L 25.924 13.999000000000002 L 25.09 13.234000000000002 L 25.245 12.113000000000001 L 24.262 12.672 L 23.245 12.178 L 23.472 13.287 L 22.688000000000002 14.101 L 23.811000000000003 14.229000000000001 z" stroke-linecap="round" />
</g>
<g transform="matrix(1 0 0 1 238.57 247.14)" id="eH6fp43ckSCIZPseNEuox"  >
<path style="stroke: none; stroke-width: 34; stroke-dasharray: none; stroke-linecap: butt; stroke-dashoffset: 0; stroke-linejoin: miter; stroke-miterlimit: 4; fill: rgb(61,8,123); fill-rule: nonzero; opacity: 1;" vector-effect="non-scaling-stroke"  transform=" translate(-2.68, -11.24)" d="M 1.868 12.458 L 2.668 12.047 L 3.46 12.472000000000001 L 3.316 11.585 L 3.965 10.963000000000001 L 3.077 10.825000000000001 L 2.685 10.016000000000002 L 2.281 10.820000000000002 L 1.3900000000000001 10.939000000000002 L 2.029 11.573000000000002 z" stroke-linecap="round" />
</g>
<g transform="matrix(1 0 0 1 256.27 245.96)" id="cQQ8iNuFSJ-MWrbu_hwFR"  >
<path style="stroke: none; stroke-width: 34; stroke-dasharray: none; stroke-linecap: butt; stroke-dashoffset: 0; stroke-linejoin: miter; stroke-miterlimit: 4; fill: rgb(61,8,123); fill-rule: nonzero; opacity: 1;" vector-effect="non-scaling-stroke"  transform=" translate(-20.38, -10.07)" d="M 20.039 10.454 L 20.404 11.137 L 20.725 10.43 L 21.488000000000003 10.296 L 20.916000000000004 9.771999999999998 L 21.023000000000003 9.003999999999998 L 20.348000000000003 9.385999999999997 L 19.650000000000002 9.046999999999997 L 19.806 9.807999999999996 L 19.268 10.364999999999997 z" stroke-linecap="round" />
</g>
<g transform="matrix(1 0 0 1 259.81 244.08)" id="pCkTQ50S1Tneg-Yf2_zTl"  >
<path style="stroke: none; stroke-width: 34; stroke-dasharray: none; stroke-linecap: butt; stroke-dashoffset: 0; stroke-linejoin: miter; stroke-miterlimit: 4; fill: rgb(61,8,123); fill-rule: nonzero; opacity: 1;" vector-effect="non-scaling-stroke"  transform=" translate(-23.92, -8.19)" d="M 23.715 8.424 L 23.939 8.844 L 24.136 8.411 L 24.605 8.327 L 24.254 8.005 L 24.318 7.535000000000001 L 23.904 7.771000000000001 L 23.479 7.562000000000001 L 23.572 8.028 L 23.242 8.370000000000001 z" stroke-linecap="round" />
</g>
<g transform="matrix(1 0 0 1 242.94 241.26)" id="-GdRfJTaOpb_qABCmatDr"  >
<path style="stroke: none; stroke-width: 34; stroke-dasharray: none; stroke-linecap: butt; stroke-dashoffset: 0; stroke-linejoin: miter; stroke-miterlimit: 4; fill: rgb(61,8,123); fill-rule: nonzero; opacity: 1;" vector-effect="non-scaling-stroke"  transform=" translate(-7.05, -5.36)" d="M 6.838 5.599 L 7.062 6.019 L 7.259 5.585 L 7.728000000000001 5.501 L 7.377000000000001 5.179 L 7.442000000000001 4.7090000000000005 L 7.028000000000001 4.944000000000001 L 6.601000000000002 4.736000000000001 L 6.6960000000000015 5.2010000000000005 L 6.365000000000001 5.5440000000000005 z" stroke-linecap="round" />
</g>
</svg>